<svg width="100" height="100" viewBox="0 0 100 100" fill="none" xmlns="http://www.w3.org/2000/svg">
<g clip-path="url(#clip0_1_2)">
<rect width="100" height="100" rx="10" fill="white" fill-opacity="0"/>
<rect width="100" height="100" rx="9" fill="#0F52BA"/>
<path d="M5.05344 64V36H12.8134L24.0134 54.28H19.9334L30.8134 36H38.5734L38.6534 64H30.0534L29.9734 48.96H31.3334L23.8934 61.48H19.7334L11.9734 48.96H13.6534V64H5.05344ZM51.6575 58L51.1375 47.64L61.6975 36H71.9775L60.1375 49.04L54.8975 54.4L51.6575 58ZM43.2175 64V36H52.4975V64H43.2175ZM61.6175 64L53.3775 53.12L59.4975 46.64L72.5375 64H61.6175ZM83.6575 64.64C81.3108 64.64 79.0442 64.3733 76.8575 63.84C74.6708 63.3067 72.8708 62.6133 71.4575 61.76L74.4975 54.88C75.8308 55.6533 77.3108 56.28 78.9375 56.76C80.5908 57.2133 82.1908 57.44 83.7375 57.44C84.6442 57.44 85.3508 57.3867 85.8575 57.28C86.3908 57.1467 86.7775 56.9733 87.0175 56.76C87.2575 56.52 87.3775 56.24 87.3775 55.92C87.3775 55.4133 87.0975 55.0133 86.5375 54.72C85.9775 54.4267 85.2308 54.1867 84.2975 54C83.3908 53.7867 82.3908 53.5733 81.2975 53.36C80.2042 53.12 79.0975 52.8133 77.9775 52.44C76.8842 52.0667 75.8708 51.5733 74.9375 50.96C74.0308 50.3467 73.2975 49.5467 72.7375 48.56C72.1775 47.5467 71.8975 46.2933 71.8975 44.8C71.8975 43.0667 72.3775 41.4933 73.3375 40.08C74.3242 38.64 75.7775 37.4933 77.6975 36.64C79.6442 35.7867 82.0575 35.36 84.9375 35.36C86.8308 35.36 88.6975 35.56 90.5375 35.96C92.3775 36.36 94.0308 36.9733 95.4975 37.8L92.6575 44.64C91.2708 43.9467 89.9242 43.4267 88.6175 43.08C87.3375 42.7333 86.0842 42.56 84.8575 42.56C83.9508 42.56 83.2308 42.64 82.6975 42.8C82.1642 42.96 81.7775 43.1733 81.5375 43.44C81.3242 43.7067 81.2175 44 81.2175 44.32C81.2175 44.8 81.4975 45.1867 82.0575 45.48C82.6175 45.7467 83.3508 45.9733 84.2575 46.16C85.1908 46.3467 86.2042 46.5467 87.2975 46.76C88.4175 46.9733 89.5242 47.2667 90.6175 47.64C91.7108 48.0133 92.7108 48.5067 93.6175 49.12C94.5508 49.7333 95.2975 50.5333 95.8575 51.52C96.4175 52.5067 96.6975 53.7333 96.6975 55.2C96.6975 56.9067 96.2042 58.48 95.2175 59.92C94.2575 61.3333 92.8175 62.48 90.8975 63.36C88.9775 64.2133 86.5642 64.64 83.6575 64.64Z" fill="white"/>
</g>
<defs>
<clipPath id="clip0_1_2">
<rect width="100" height="100" rx="10" fill="white" fill-opacity="0"/>
</clipPath>
</defs>
</svg>
